<mxfile host="65bd71144e">
    <diagram id="ZO2Zb-oTsybwkb2CQHEX" name="Page-1">
        <mxGraphModel dx="1174" dy="611" grid="1" gridSize="10" guides="1" tooltips="1" connect="1" arrows="1" fold="1" page="1" pageScale="1" pageWidth="1169" pageHeight="827" math="0" shadow="0">
            <root>
                <mxCell id="0"/>
                <mxCell id="1" parent="0"/>
                <mxCell id="2" value="tracker&lt;br&gt;APK" style="rounded=0;whiteSpace=wrap;html=1;" parent="1" vertex="1">
                    <mxGeometry x="70" y="220" width="60" height="60" as="geometry"/>
                </mxCell>
                <mxCell id="3" value="MQTT&lt;br&gt;Broker" style="ellipse;whiteSpace=wrap;html=1;aspect=fixed;" parent="1" vertex="1">
                    <mxGeometry x="310" y="60" width="80" height="80" as="geometry"/>
                </mxCell>
                <mxCell id="4" value="&lt;div style=&quot;font-family: Consolas, &amp;quot;Courier New&amp;quot;, monospace; font-size: 14px; line-height: 19px; white-space: pre;&quot;&gt;&lt;span&gt;&lt;font style=&quot;color: rgb(0, 0, 0);&quot;&gt;labserver.sense-campus.gr:1883&lt;/font&gt;&lt;/span&gt;&lt;/div&gt;" style="text;whiteSpace=wrap;html=1;" parent="1" vertex="1">
                    <mxGeometry x="250" y="30" width="240" height="30" as="geometry"/>
                </mxCell>
                <mxCell id="5" value="" style="endArrow=classic;html=1;entryX=-0.012;entryY=0.6;entryDx=0;entryDy=0;entryPerimeter=0;exitX=1;exitY=0;exitDx=0;exitDy=0;" parent="1" source="2" target="3" edge="1">
                    <mxGeometry width="50" height="50" relative="1" as="geometry">
                        <mxPoint x="220" y="180" as="sourcePoint"/>
                        <mxPoint x="270" y="130" as="targetPoint"/>
                    </mxGeometry>
                </mxCell>
                <mxCell id="6" value="{lat,lon,alt,speed,yaw,pitch,roll,id,rawtime}&lt;br&gt;@ interval: x ms" style="edgeLabel;html=1;align=center;verticalAlign=middle;resizable=0;points=[];" parent="5" vertex="1" connectable="0">
                    <mxGeometry x="-0.1151" y="3" relative="1" as="geometry">
                        <mxPoint as="offset"/>
                    </mxGeometry>
                </mxCell>
                <mxCell id="9" value="PUB&lt;br&gt;@gpsapp" style="edgeLabel;html=1;align=center;verticalAlign=middle;resizable=0;points=[];" parent="5" vertex="1" connectable="0">
                    <mxGeometry x="0.6684" y="1" relative="1" as="geometry">
                        <mxPoint x="-9" y="4" as="offset"/>
                    </mxGeometry>
                </mxCell>
                <mxCell id="7" value="Orion&lt;br&gt;CB" style="ellipse;whiteSpace=wrap;html=1;aspect=fixed;" parent="1" vertex="1">
                    <mxGeometry x="630" y="60" width="80" height="80" as="geometry"/>
                </mxCell>
                <mxCell id="12" style="edgeStyle=none;html=1;entryX=1;entryY=0.5;entryDx=0;entryDy=0;" parent="1" source="8" target="3" edge="1">
                    <mxGeometry relative="1" as="geometry"/>
                </mxCell>
                <mxCell id="13" value="SUB&lt;br&gt;@gpsapp" style="edgeLabel;html=1;align=center;verticalAlign=middle;resizable=0;points=[];" parent="12" vertex="1" connectable="0">
                    <mxGeometry x="-0.0472" relative="1" as="geometry">
                        <mxPoint x="-1" as="offset"/>
                    </mxGeometry>
                </mxCell>
                <mxCell id="8" value="Python Controller&lt;br&gt;&lt;div&gt;Manage Fiware Entities&lt;/div&gt;&lt;div&gt;Format incoming data&lt;/div&gt;&lt;div&gt;&lt;br&gt;&lt;/div&gt;" style="whiteSpace=wrap;html=1;aspect=fixed;" parent="1" vertex="1">
                    <mxGeometry x="400" y="220" width="140" height="140" as="geometry"/>
                </mxCell>
                <mxCell id="14" value="" style="endArrow=classic;html=1;exitX=1;exitY=0;exitDx=0;exitDy=0;entryX=0;entryY=1;entryDx=0;entryDy=0;" parent="1" source="8" target="7" edge="1">
                    <mxGeometry width="50" height="50" relative="1" as="geometry">
                        <mxPoint x="615" y="250" as="sourcePoint"/>
                        <mxPoint x="665" y="200" as="targetPoint"/>
                    </mxGeometry>
                </mxCell>
                <mxCell id="15" value="Patch Measurement&lt;br&gt;@ interval: y ms" style="edgeLabel;html=1;align=center;verticalAlign=middle;resizable=0;points=[];" parent="14" vertex="1" connectable="0">
                    <mxGeometry x="0.024" y="-1" relative="1" as="geometry">
                        <mxPoint as="offset"/>
                    </mxGeometry>
                </mxCell>
                <mxCell id="16" value="" style="endArrow=classic;html=1;exitX=1;exitY=0.5;exitDx=0;exitDy=0;" edge="1" parent="1" source="7" target="17">
                    <mxGeometry width="50" height="50" relative="1" as="geometry">
                        <mxPoint x="720" y="99.41" as="sourcePoint"/>
                        <mxPoint x="880" y="99.41" as="targetPoint"/>
                    </mxGeometry>
                </mxCell>
                <mxCell id="17" value="Digital Twin" style="shape=process;whiteSpace=wrap;html=1;backgroundOutline=1;" vertex="1" parent="1">
                    <mxGeometry x="830" y="69.99999999999997" width="120" height="60" as="geometry"/>
                </mxCell>
            </root>
        </mxGraphModel>
    </diagram>
</mxfile>